<svg width="167" height="40" viewBox="0 0 167 40" fill="none" xmlns="http://www.w3.org/2000/svg">
<path fill-rule="evenodd" clip-rule="evenodd" d="M19.7502 37.8339H19.6954C19.4631 37.8339 19.2445 37.7641 19.0616 37.6429C15.0721 35.9291 12.2271 32.1166 11.0985 30.3979L8.27239 31.5319C7.79 31.7259 7.23803 31.5704 6.9263 31.1535C4.9543 28.516 4.85734 23.1056 4.9176 20.7505L0.978792 20.1579C0.366016 20.0655 -0.0635058 19.5028 0.00771569 18.8854C0.983444 10.4344 3.72985 5.01638 8.17103 2.78191C12.9185 0.393571 18.0042 2.45905 19.6963 3.28887C21.3943 2.45878 26.5072 0.38835 31.2727 2.79016C35.7163 5.03012 38.4636 10.4454 39.4376 18.8854C39.5089 19.5028 39.0796 20.0655 38.4668 20.1579L34.528 20.7505C34.588 23.1056 34.4916 28.516 32.5196 31.1535C32.2076 31.5704 31.6559 31.7259 31.1735 31.5319L28.3469 30.3979C27.2183 32.1166 24.3735 35.9291 20.3843 37.6429C20.2014 37.7641 19.9828 37.8339 19.7502 37.8339ZM11.5653 27.8161C11.969 27.8161 12.3566 28.0307 12.5662 28.4019C12.595 28.453 15.457 33.4435 19.7228 35.4153C23.9887 33.4435 26.8504 28.453 26.88 28.4008C27.1638 27.9005 27.7727 27.685 28.3066 27.8991L31.1171 29.0268C32.3021 26.5021 32.3057 21.665 32.1892 19.8383C32.1514 19.2409 32.5755 18.7134 33.1655 18.6243L37.0142 18.0454C36.5033 14.3887 35.621 11.3969 34.3867 9.1402C33.2869 7.12995 31.8964 5.68875 30.254 4.85673C25.6739 2.53736 20.3222 5.55686 20.2688 5.58764C19.9129 5.79207 19.4738 5.79234 19.1188 5.58571C19.0676 5.55631 13.7465 2.5445 9.18812 4.84904C7.54757 5.67831 6.15876 7.11841 5.05976 9.12866C3.82572 11.3868 2.94285 14.3824 2.43142 18.0454L6.28011 18.6243C6.87015 18.7134 7.29446 19.2409 7.25611 19.838C7.13969 21.665 7.1438 26.5021 8.32854 29.0268L11.139 27.8991C11.2785 27.8433 11.4228 27.8161 11.5653 27.8161ZM19.1547 27.9883C19.1433 27.9883 19.1323 27.9883 19.1209 27.9881L18.0352 27.9549C16.3957 27.9051 14.9724 26.7434 14.5744 25.1294C14.1489 23.4072 14.0733 21.3135 14.0606 20.4645L11.4258 16.6307C10.6838 15.5511 10.6088 14.1077 11.2348 12.9531L12.313 10.9645C12.7345 10.1871 13.5356 9.70378 14.4039 9.70378H24.4103C25.2784 9.70378 26.0792 10.1871 26.5012 10.9645L27.6053 13.0009C28.2168 14.1287 28.1685 15.5002 27.4793 16.5801L24.9975 20.4687C24.9467 21.29 24.7708 23.488 24.2544 25.256C23.7962 26.825 22.4128 27.9059 20.8122 27.9469L19.1828 27.9883C19.1736 27.9883 19.1639 27.9883 19.1547 27.9883ZM14.4039 12.0234C14.3575 12.0234 14.3146 12.0493 14.2919 12.0908L13.2137 14.0797C13.0064 14.4613 13.0313 14.9384 13.2765 15.2954L16.1156 19.4264C16.2522 19.6249 16.3242 19.8624 16.3223 20.1048C16.3221 20.1303 16.3059 22.6851 16.7686 24.5609C16.9203 25.1747 17.4688 25.6173 18.1024 25.6364L19.1574 25.6688L20.7561 25.6278C21.3748 25.6124 21.9091 25.196 22.0855 24.5914C22.6379 22.7003 22.7517 20.0716 22.7528 20.0457C22.7614 19.8369 22.8249 19.634 22.9366 19.4595L25.5846 15.3106C25.8126 14.9537 25.8285 14.5002 25.6264 14.1273L24.5221 12.0908C24.4997 12.0493 24.4568 12.0234 24.4103 12.0234H14.4039Z" fill="#00C850"/>
<path d="M54.1276 8.74244C54.1276 9.7966 53.2758 10.6513 52.2252 10.6513C51.1749 10.6513 50.3232 9.7966 50.3232 8.74244C50.3232 7.68829 51.1749 6.83362 52.2252 6.83362C53.2758 6.83362 54.1276 7.68829 54.1276 8.74244Z" fill="#00C850"/>
<path d="M47.8225 14.2544V11.7809H53.7825V23.8433C53.7825 24.628 53.6711 25.302 53.4487 25.8648C53.2264 26.4278 52.9038 26.8929 52.4807 27.2598C52.0576 27.6264 51.5414 27.8973 50.9315 28.0716C50.3221 28.2459 49.6264 28.333 48.8447 28.333C48.5221 28.333 48.1957 28.3203 47.8657 28.2948C47.5358 28.2694 47.2203 28.2204 46.9193 28.1476L47.0695 25.6852C47.1558 25.7071 47.2757 25.727 47.4301 25.745C47.5841 25.7632 47.742 25.7779 47.9034 25.7887C48.0648 25.7995 48.2189 25.8067 48.3661 25.8105C48.5131 25.8139 48.6223 25.8158 48.6942 25.8158C48.9809 25.8158 49.2516 25.7831 49.5062 25.7178C49.7608 25.6523 49.9796 25.5435 50.1626 25.3908C50.3453 25.2384 50.4906 25.0367 50.5979 24.7863C50.7058 24.5353 50.7594 24.2213 50.7594 23.8433V14.2544H47.8225Z" fill="#00C850"/>
<path d="M64.1843 11.7809V20.0514C63.9907 20.4512 63.7074 20.765 63.3343 20.9941C62.9615 21.2229 62.4775 21.3375 61.8823 21.3375C61.5307 21.3375 61.2333 21.2937 60.9891 21.2066C60.7454 21.1194 60.5482 20.9758 60.3975 20.7761C60.2472 20.5763 60.1377 20.3132 60.0694 19.9861C60.0014 19.6591 59.9673 19.256 59.9673 18.7765V11.7809H56.9769V18.7549C56.9769 19.6483 57.0752 20.4128 57.2727 21.0486C57.4699 21.6844 57.7477 22.2071 58.1064 22.6177C58.465 23.028 58.8952 23.3276 59.3972 23.5169C59.8993 23.7056 60.4515 23.7999 61.0538 23.7999C61.7137 23.7999 62.3215 23.6331 62.8771 23.2988C63.4332 22.9646 63.9082 22.5034 64.3026 21.9149L64.4747 23.5711H67.1856V11.7809H64.1843Z" fill="#00C850"/>
<path d="M79.3683 12.658C79.7234 13.0395 79.9995 13.5298 80.1967 14.1291C80.3937 14.7284 80.4925 15.4566 80.4925 16.3141V23.5711H77.5019V16.3575C77.5019 15.8927 77.45 15.5095 77.3459 15.2079C77.2419 14.9066 77.093 14.6686 76.8994 14.4941C76.7057 14.3197 76.4727 14.1983 76.2004 14.1291C75.9278 14.0602 75.6194 14.0256 75.275 14.0256C74.7661 14.0256 74.3321 14.1291 73.9735 14.3363C73.6148 14.5433 73.3245 14.8283 73.1021 15.1916V23.5711H70.1008V11.7809H72.8118L72.9945 13.4153C73.4105 12.8268 73.9164 12.3711 74.5113 12.0479C75.1067 11.7245 75.7664 11.5629 76.4907 11.5629C77.0788 11.5629 77.6166 11.6501 78.1045 11.8244C78.592 11.9987 79.0135 12.2767 79.3683 12.658Z" fill="#00C850"/>
<path fill-rule="evenodd" clip-rule="evenodd" d="M90.8626 11.7809L90.7444 12.9031C90.3999 12.4746 89.9842 12.1442 89.4964 11.9115C89.0086 11.6791 88.4243 11.5629 87.7431 11.5629C87.0113 11.5629 86.3553 11.7082 85.7746 11.9987C85.1936 12.2895 84.6987 12.6998 84.2898 13.2302C83.8811 13.7606 83.5673 14.3961 83.3485 15.1371C83.1297 15.878 83.0205 16.6953 83.0205 17.5887V17.8178C83.0205 18.675 83.1297 19.4685 83.3485 20.1986C83.5673 20.9285 83.8811 21.5591 84.2898 22.0892C84.6987 22.6196 85.1917 23.0352 85.7688 23.3367C86.3462 23.6383 86.9972 23.7891 87.7215 23.7891C88.338 23.7891 88.8816 23.6801 89.3511 23.4621C89.8209 23.2441 90.2314 22.9392 90.5829 22.5468V23.2225C90.5829 24.058 90.348 24.7027 89.8782 25.1565C89.4084 25.6105 88.7543 25.8377 87.9149 25.8377C87.3558 25.8377 86.8357 25.7231 86.3553 25.4943C85.8748 25.2655 85.4446 24.9332 85.0644 24.4974L83.7197 26.339C83.9707 26.666 84.272 26.9471 84.6233 27.1834C84.9748 27.4194 85.3476 27.6137 85.7421 27.7664C86.1365 27.9188 86.5347 28.0314 86.9362 28.1042C87.3378 28.177 87.7141 28.2129 88.0657 28.2129C88.8832 28.2129 89.6311 28.1023 90.3084 27.8807C90.9864 27.659 91.5674 27.3342 92.0503 26.9056C92.5365 26.4771 92.9107 25.9503 93.1811 25.3255C93.4488 24.7008 93.5853 23.9889 93.5853 23.1898V11.7809H90.8626ZM90.5829 20.1713V15.1808C90.3822 14.81 90.1115 14.525 89.7706 14.3253C89.43 14.1255 89.0053 14.0256 88.4959 14.0256C88.0731 14.0256 87.707 14.1181 87.3987 14.3034C87.0903 14.4888 86.8338 14.7431 86.6295 15.0662C86.4252 15.3894 86.2728 15.7673 86.1725 16.1995C86.0717 16.6317 86.0218 17.0948 86.0218 17.5887V17.8178C86.0218 18.3117 86.0704 18.771 86.1671 19.1962C86.264 19.6212 86.4126 19.9917 86.6134 20.3077C86.8141 20.6236 87.069 20.8724 87.3774 21.0539C87.6857 21.2356 88.0515 21.3264 88.4743 21.3264C88.9979 21.3264 89.43 21.2248 89.7706 21.0212C90.1115 20.8179 90.3822 20.5345 90.5829 20.1713Z" fill="#00C850"/>
<path d="M102.449 6.83362V21.1086H105.784V23.5711H95.9398V21.1086H99.4251V9.30741H95.9398V6.83362H102.449Z" fill="#00C850"/>
<path fill-rule="evenodd" clip-rule="evenodd" d="M117.573 15.0009C117.335 14.2852 116.991 13.6734 116.535 13.1649C116.079 12.6563 115.524 12.2621 114.869 11.9824C114.21 11.7029 113.465 11.5629 112.623 11.5629C111.815 11.5629 111.064 11.7118 110.375 12.0097C109.687 12.3077 109.092 12.7252 108.589 13.2628C108.089 13.8004 107.699 14.4415 107.417 15.186C107.139 15.9308 106.999 16.7534 106.999 17.6543V18.0901C106.999 18.8819 107.139 19.6245 107.423 20.3184C107.707 21.0124 108.111 21.6152 108.633 22.1274C109.157 22.6395 109.785 23.0446 110.515 23.3423C111.247 23.6403 112.061 23.7891 112.959 23.7891C113.53 23.7891 114.066 23.7271 114.56 23.6037C115.054 23.4803 115.505 23.3188 115.912 23.1187C116.316 22.9192 116.669 22.6901 116.964 22.4326C117.261 22.1744 117.504 21.9113 117.69 21.6424L116.196 20.008C116.024 20.2332 115.822 20.4294 115.592 20.5962C115.363 20.7636 115.117 20.9031 114.852 21.0159C114.587 21.1286 114.309 21.2138 114.016 21.2719C113.727 21.33 113.435 21.359 113.14 21.359C112.724 21.359 112.342 21.2937 111.99 21.1629C111.637 21.032 111.326 20.8469 111.053 20.6073C110.782 20.3674 110.558 20.0824 110.381 19.7518C110.206 19.4212 110.089 19.0562 110.031 18.6567H117.928V17.371C117.928 16.5063 117.81 15.7164 117.573 15.0009ZM114.991 16.3248V16.5644H110.086C110.157 16.1796 110.266 15.8307 110.408 15.5186C110.553 15.2062 110.73 14.9373 110.941 14.7121C111.151 14.4868 111.397 14.3142 111.678 14.1944C111.957 14.0746 112.266 14.0146 112.604 14.0146C112.984 14.0146 113.317 14.0746 113.609 14.1944C113.899 14.3142 114.145 14.4777 114.347 14.685C114.546 14.8919 114.699 15.137 114.808 15.4204C114.915 15.7037 114.978 16.0053 114.991 16.3248Z" fill="#00C850"/>
<path fill-rule="evenodd" clip-rule="evenodd" d="M130.072 22.2743H131.981V23.5711H128.793V22.2743H128.823L128.815 22.0347C128.405 22.6013 127.903 23.0352 127.307 23.3367C126.712 23.6383 126.048 23.7891 125.319 23.7891C124.551 23.7891 123.88 23.6203 123.3 23.2822C122.724 22.9444 122.243 22.4978 121.858 21.942C121.476 21.3864 121.186 20.747 120.992 20.0243C120.801 19.3014 120.703 18.5588 120.703 17.7957V17.5671C120.703 16.7825 120.801 16.0288 120.992 15.3058C121.186 14.5831 121.476 13.944 121.858 13.3882C122.243 12.8326 122.724 12.3893 123.3 12.0587C123.88 11.7281 124.557 11.5629 125.341 11.5629C126.078 11.5629 126.739 11.7228 127.324 12.0424C127.908 12.362 128.397 12.8088 128.793 13.3826V8.13042H126.884V6.83362H130.072V22.2743ZM128.793 14.9082C128.649 14.5812 128.471 14.2835 128.261 14.0146C128.048 13.7459 127.807 13.5135 127.534 13.3173C127.261 13.1212 126.961 12.9687 126.63 12.8597C126.3 12.7507 125.95 12.6962 125.576 12.6962C124.917 12.6962 124.36 12.8395 123.91 13.1267C123.456 13.4136 123.09 13.7877 122.806 14.2489C122.522 14.7104 122.32 15.2314 122.194 15.8127C122.069 16.3937 122.006 16.9786 122.006 17.5671V17.7957C122.006 18.3844 122.069 18.9691 122.194 19.5504C122.32 20.1314 122.522 20.6527 122.801 21.1139C123.079 21.5751 123.445 21.9475 123.899 22.2308C124.349 22.5142 124.901 22.6558 125.554 22.6558C125.92 22.6558 126.267 22.6088 126.592 22.5142C126.92 22.4198 127.22 22.2837 127.496 22.1055C127.772 21.9276 128.02 21.7132 128.239 21.4625C128.457 21.2121 128.643 20.9305 128.793 20.6181V14.9082Z" fill="#00C850"/>
<path fill-rule="evenodd" clip-rule="evenodd" d="M142.896 14.8645C142.683 14.2107 142.374 13.6388 141.97 13.1486C141.565 12.658 141.066 12.2712 140.47 11.9879C139.875 11.7046 139.189 11.5629 138.416 11.5629C137.69 11.5629 137.012 11.7173 136.381 12.0261C135.75 12.3348 135.201 12.7579 134.737 13.2955C134.27 13.8331 133.901 14.465 133.633 15.1916C133.363 15.9178 133.226 16.7025 133.218 17.5453V18.0137C133.226 18.8056 133.36 19.552 133.623 20.2531C133.885 20.954 134.253 21.5663 134.731 22.0892C135.207 22.6121 135.78 23.0263 136.447 23.3315C137.113 23.6364 137.851 23.7891 138.662 23.7891C139.143 23.7891 139.599 23.7385 140.028 23.6364C140.459 23.5348 140.855 23.3929 141.216 23.2114C141.579 23.0299 141.907 22.8102 142.202 22.5521C142.494 22.2945 142.751 22.0128 142.964 21.7079L142.147 21.0868C141.738 21.6097 141.243 22.0092 140.664 22.2854C140.082 22.5615 139.432 22.6957 138.717 22.6885C138.086 22.6885 137.512 22.5595 136.996 22.3017C136.48 22.0438 136.037 21.7005 135.671 21.2719C135.305 20.8433 135.024 20.3475 134.822 19.7845C134.622 19.2214 134.516 18.6315 134.51 18.0137V17.7633H143.223V16.9676C143.215 16.2194 143.106 15.5186 142.896 14.8645ZM141.932 16.5102V16.6516H134.565C134.641 16.0778 134.789 15.5493 135.005 15.0662C135.22 14.5831 135.494 14.1637 135.821 13.8076C136.152 13.4518 136.537 13.1737 136.974 12.974C137.411 12.7745 137.892 12.6743 138.416 12.6743C138.968 12.6743 139.46 12.7833 139.888 13.0014C140.32 13.2191 140.683 13.5063 140.981 13.8621C141.279 14.2182 141.508 14.6266 141.669 15.0881C141.83 15.5493 141.918 16.0233 141.932 16.5102Z" fill="#00C850"/>
<path d="M150.271 21.8059L154.272 11.7809H155.616L150.721 23.5711H149.667L144.761 11.7809H146.105L150.15 21.8059L150.205 22.0347L150.271 21.8059Z" fill="#00C850"/>
<path d="M165.856 20.5093C165.856 19.9715 165.739 19.5103 165.501 19.1254C165.266 18.7403 164.941 18.4152 164.534 18.1498C164.124 17.8848 163.652 17.6631 163.119 17.4852C162.584 17.3073 162.024 17.1565 161.434 17.0331C160.975 16.9385 160.543 16.835 160.139 16.7227C159.735 16.6098 159.38 16.4684 159.079 16.2974C158.779 16.1267 158.539 15.9162 158.364 15.6655C158.189 15.4151 158.104 15.1044 158.11 14.7339C158.11 14.385 158.2 14.0821 158.375 13.8242C158.549 13.5661 158.784 13.3516 159.074 13.1812C159.363 13.0105 159.694 12.8832 160.063 12.7997C160.434 12.7161 160.811 12.6743 161.199 12.6743C161.614 12.6743 162.018 12.7288 162.409 12.8378C162.8 12.9469 163.149 13.1032 163.458 13.3063C163.766 13.5099 164.012 13.7622 164.201 14.0638C164.386 14.3654 164.488 14.7049 164.501 15.0826H165.79C165.771 14.5231 165.638 14.0256 165.394 13.5896C165.151 13.1538 164.821 12.7853 164.408 12.4837C163.996 12.1821 163.518 11.9533 162.969 11.7973C162.42 11.6409 161.83 11.5629 161.199 11.5629C160.647 11.5629 160.109 11.6337 159.585 11.7754C159.06 11.9171 158.596 12.1259 158.186 12.4021C157.776 12.6779 157.449 13.0157 157.197 13.4153C156.946 13.8148 156.82 14.2688 156.82 14.7774C156.82 15.315 156.943 15.7673 157.186 16.1342C157.43 16.5011 157.757 16.8115 158.164 17.0658C158.574 17.3201 159.041 17.529 159.563 17.6922C160.087 17.856 160.628 17.9957 161.188 18.1119C161.647 18.2063 162.081 18.3191 162.488 18.4495C162.898 18.5803 163.258 18.7422 163.57 18.9345C163.881 19.1271 164.127 19.3578 164.307 19.6265C164.488 19.8954 164.575 20.2111 164.575 20.5746C164.57 20.9451 164.466 21.2628 164.269 21.5278C164.072 21.7931 163.818 22.0109 163.507 22.1819C163.193 22.3526 162.843 22.4799 162.453 22.5631C162.062 22.6467 161.669 22.6885 161.273 22.6885C160.888 22.6885 160.491 22.6503 160.09 22.5742C159.688 22.4979 159.317 22.367 158.978 22.1819C158.637 21.9968 158.35 21.7478 158.118 21.4354C157.883 21.123 157.746 20.7343 157.703 20.2692H156.411C156.433 20.8217 156.577 21.3156 156.842 21.7514C157.107 22.1871 157.46 22.556 157.902 22.8575C158.342 23.1588 158.853 23.3896 159.429 23.5492C160.005 23.7092 160.623 23.7891 161.273 23.7891C161.854 23.7891 162.42 23.7219 162.969 23.5877C163.518 23.453 164.004 23.2496 164.43 22.9773C164.856 22.7048 165.203 22.3634 165.463 21.9528C165.725 21.5425 165.856 21.0613 165.856 20.5093Z" fill="#00C850"/>
</svg>
